<svg xmlns="http://www.w3.org/2000/svg" width="1000px" height="1000px">
  <path fill="#161c2d" d="M500.0,0.0 C776.142,0.0 1000.0,223.857 1000.0,500.0 C1000.0,776.142 776.142,1000.0 500.0,1000.0 C223.857,1000.0 0.0,776.142 0.0,500.0 C0.0,223.857 223.857,0.0 500.0,0.0 Z"/>
  <path fill="#ffffff" d="M245.666,735.789 L427.307,735.789 L427.307,671.702 L390.319,665.110 L413.757,591.868 L586.608,591.868 L610.46,665.110 L573.59,671.702 L573.59,735.789 L754.699,735.789 L754.699,671.702 L716.613,666.208 L555.480,202.585 L445.983,202.585 L283.752,666.208 L245.666,671.702 L245.666,735.789 ZM499.84,325.266 L501.281,325.266 L561.340,513.132 L439.25,513.132 L499.84,325.266 Z"/>
</svg>