<svg xmlns="http://www.w3.org/2000/svg" width="1000px" height="1000px">
  <path d="M 500 0 C 223.857 0 0 223.857 0 500 C 0 776.142 223.857 1000 500 1000 C 776.142 1000 1000 776.142 1000 500 C 1000 223.857 776.142 0 500 0 z M 445.98242 202.58594 L 555.48047 202.58594 L 716.61328 666.20703 L 754.69922 671.70117 L 754.69922 735.78906 L 573.58984 735.78906 L 573.58984 671.70117 L 610.46094 665.10938 L 586.60742 591.86719 L 413.75781 591.86719 L 390.31836 665.10938 L 427.30664 671.70117 L 427.30664 735.78906 L 245.66602 735.78906 L 245.66602 671.70117 L 283.75195 666.20703 L 445.98242 202.58594 z M 499.83984 325.26562 L 439.25 513.13281 L 561.33984 513.13281 L 501.28125 325.26562 L 499.83984 325.26562 z " />
</svg>
