<svg xmlns="http://www.w3.org/2000/svg" width="1200px" height="1200px">
 <path d="m0 0h1200v1200h-1200z" fill="#fff"/>
 <path d="m600 100c276.14 0 500 223.86 500 500 0 276.14-223.86 500-500 500-276.14 0-500-223.86-500-500 0-276.14 223.86-500 500-500z" fill="#161c2d"/>
 <path d="m345.67 835.79h181.64v-64.087l-36.988-6.592 23.438-73.242h172.85l23.852 73.242-36.87 6.592v64.087h181.11v-64.087l-38.086-5.494-161.13-463.62h-109.5l-162.23 463.62-38.086 5.494zm254.17-410.52h1.441l60.059 187.87h-122.09z" fill="#fff"/>
</svg>
